<?xml version="1.0" standalone="no"?>
<!DOCTYPE svg PUBLIC "-//W3C//DTD SVG 20010904//EN"
 "http://www.w3.org/TR/2001/REC-SVG-20010904/DTD/svg10.dtd">
<svg version="1.0" xmlns="http://www.w3.org/2000/svg"
 width="50.000000pt" height="50.000000pt" viewBox="0 0 50.000000 50.000000"
 preserveAspectRatio="xMidYMid meet">

<g transform="translate(0.000000,50.000000) scale(0.100000,-0.100000)"
fill="#000000" stroke="none">
<path d="M203 460 c-12 -5 -29 -20 -38 -33 -21 -32 -17 -130 7 -179 10 -21 17
-50 16 -66 -4 -50 22 -69 43 -31 9 18 8 24 -5 31 -9 5 -16 15 -16 22 0 7 -8
28 -17 47 -10 19 -19 60 -20 92 -2 50 1 62 22 83 32 31 74 31 109 -1 23 -22
26 -31 25 -82 -1 -35 -10 -71 -21 -92 -28 -50 -15 -62 15 -14 22 34 27 55 27
103 0 72 -10 94 -50 115 -32 17 -64 18 -97 5z"/>
<path d="M370 204 c0 -12 -6 -15 -24 -10 -28 7 -49 -13 -40 -38 4 -10 0 -18
-10 -22 -21 -8 -21 -44 0 -44 12 0 15 -6 11 -22 -8 -30 10 -49 39 -42 18 5 24
2 24 -10 0 -9 8 -16 20 -16 12 0 20 7 20 16 0 12 6 15 22 11 30 -8 49 10 42
39 -5 18 -2 24 10 24 21 0 21 36 0 44 -10 4 -13 13 -9 25 7 22 -16 44 -39 35
-10 -4 -18 0 -22 10 -8 21 -44 21 -44 0z m45 -94 c0 -18 -6 -26 -23 -28 -24
-4 -38 18 -28 44 3 9 15 14 28 12 17 -2 23 -10 23 -28z"/>
<path d="M107 129 c-33 -17 -57 -51 -57 -80 0 -5 38 -9 84 -9 80 0 84 1 90 24
3 13 9 32 13 43 6 16 5 17 -11 3 -16 -13 -20 -12 -38 13 -23 32 -31 32 -81 6z"/>
</g>
</svg>
