<?xml version="1.0" standalone="no"?>
<!DOCTYPE svg PUBLIC "-//W3C//DTD SVG 20010904//EN"
 "http://www.w3.org/TR/2001/REC-SVG-20010904/DTD/svg10.dtd">
<svg version="1.0" xmlns="http://www.w3.org/2000/svg"
 width="225.000000pt" height="225.000000pt" viewBox="0 0 225.000000 225.000000"
 preserveAspectRatio="xMidYMid meet">

<g transform="translate(0.000000,225.000000) scale(0.100000,-0.100000)"
fill="#626E79" stroke="none">
<path d="M1055 1846 c-64 -16 -88 -29 -143 -80 -55 -50 -88 -101 -113 -174
-75 -219 15 -476 199 -560 l57 -26 -72 -12 c-304 -51 -540 -249 -607 -510 -9
-34 -16 -69 -16 -78 0 -15 69 -16 766 -16 l767 0 -7 42 c-43 282 -291 507
-617 562 l-74 12 57 26 c255 117 307 524 93 727 -88 84 -187 113 -290 87z"/>
<path d="M499 1535 c-57 -30 -104 -82 -138 -155 -22 -47 -26 -69 -26 -150 0
-83 4 -103 28 -155 42 -90 110 -154 187 -175 20 -5 11 -9 -43 -19 -148 -26
-258 -81 -355 -177 -70 -70 -127 -177 -138 -257 l-7 -47 145 0 145 0 16 78
c48 222 214 407 450 502 45 18 62 30 74 56 16 32 15 33 -21 82 -77 105 -113
232 -102 353 7 63 6 66 -19 77 -45 21 -144 14 -196 -13z"/>
<path d="M1560 1539 c-25 -9 -25 -11 -25 -117 0 -131 -25 -212 -92 -304 l-45
-61 16 -35 c9 -19 27 -37 39 -40 12 -3 57 -23 100 -45 213 -106 360 -295 392
-504 l7 -43 145 0 146 0 -7 47 c-9 67 -65 179 -119 239 -89 99 -241 176 -381
193 -43 5 -55 10 -41 15 108 39 173 107 206 218 67 220 -67 450 -260 447 -31
0 -67 -5 -81 -10z"/>
</g>
</svg>
