<?xml version="1.0" standalone="no"?>
<!DOCTYPE svg PUBLIC "-//W3C//DTD SVG 20010904//EN"
 "http://www.w3.org/TR/2001/REC-SVG-20010904/DTD/svg10.dtd">
<svg version="1.0" xmlns="http://www.w3.org/2000/svg"
 width="225.000000pt" height="225.000000pt" viewBox="0 0 225.000000 225.000000"
 preserveAspectRatio="xMidYMid meet">

<g transform="translate(0.000000,225.000000) scale(0.100000,-0.100000)"
fill="#000000" stroke="none">
<path d="M207 2166 c-96 -26 -185 -121 -201 -213 -11 -68 -7 -1415 5 -1456 14
-52 84 -122 134 -136 22 -6 66 -11 98 -11 51 0 60 3 64 20 10 40 75 165 109
212 l34 48 -155 0 -155 0 0 654 0 653 23 34 c48 73 -8 69 962 69 809 0 872 -1
904 -18 19 -9 44 -30 55 -45 21 -28 21 -39 24 -688 l2 -659 -155 0 -155 0 34
-48 c34 -47 99 -172 109 -212 4 -17 13 -20 64 -20 32 0 75 5 97 11 53 15 119
83 135 139 9 34 11 215 9 755 -3 699 -3 711 -24 756 -27 58 -85 116 -143 143
-46 21 -52 21 -936 23 -705 2 -900 -1 -938 -11z"/>
<path d="M1054 1600 c-97 -20 -196 -97 -242 -187 -68 -133 -35 -316 76 -414
77 -68 121 -84 237 -84 121 0 172 20 252 101 163 167 112 451 -100 553 -69 33
-155 45 -223 31z"/>
<path d="M955 755 c-86 -16 -174 -47 -230 -80 -159 -93 -274 -258 -301 -433
-10 -64 17 -127 67 -152 37 -19 61 -20 634 -20 573 0 597 1 634 20 30 15 43
30 56 64 16 41 16 50 2 120 -51 249 -251 432 -527 482 -94 17 -243 16 -335 -1z"/>
</g>
</svg>
